<svg id="visual" viewBox="0 0 900 100" width="900" height="100" xmlns="http://www.w3.org/2000/svg"
    xmlns:xlink="http://www.w3.org/1999/xlink" version="1.1">
    <!-- <rect x="0" y="0" width="900" height="600" fill="#eff"></rect> -->
    <path
        d="M499 600L460 600L460 533L626 533L626 467L539 467L539 400L512 400L512 333L566 333L566 267L506 267L506 200L637 200L637 133L528 133L528 67L524 67L524 0L900 0L900 67L900 67L900 133L900 133L900 200L900 200L900 267L900 267L900 333L900 333L900 400L900 400L900 467L900 467L900 533L900 533L900 600L900 600Z"
        fill="#9900ff"></path>
    <path
        d="M756 600L741 600L741 533L622 533L622 467L602 467L602 400L747 400L747 333L635 333L635 267L689 267L689 200L585 200L585 133L719 133L719 67L610 67L610 0L900 0L900 67L900 67L900 133L900 133L900 200L900 200L900 267L900 267L900 333L900 333L900 400L900 400L900 467L900 467L900 533L900 533L900 600L900 600Z"
        fill="#7700c6"></path>
    <path
        d="M800 600L768 600L768 533L722 533L722 467L826 467L826 400L769 400L769 333L752 333L752 267L729 267L729 200L708 200L708 133L828 133L828 67L841 67L841 0L900 0L900 67L900 67L900 133L900 133L900 200L900 200L900 267L900 267L900 333L900 333L900 400L900 400L900 467L900 467L900 533L900 533L900 600L900 600Z"
        fill="#560090"></path>
</svg>